# xmcd CD database file
#
# Track frame offsets:
#	150
#	11442
#	25819
#	44131
#	56171
#	67551
#	80801
#	96873
#	108439
#	121868
#	134422
#	151521
#
# Disc length: 2255 seconds
#
# Revision: 1
# Processed by: cddbd v1.4PL0 Copyright (c) Steve Scherf et al.
# Submitted via: CDValet v3.40 - Copyright (c) 1996 - 1998 Greg Leichner
#
DISCID=9408cd0c
DTITLE=John Train - Looks Like Up
DYEAR=1900
DGENRE=
TTITLE0=Lonely Next Door
TTITLE1=If I'm Gonna Get Blamed
TTITLE2=Misery Loves Company
TTITLE3=I Wish It Was The Time
TTITLE4=Nobody's Seen The Wind
TTITLE5=Cracked And Crumbled
TTITLE6=500 Miles
TTITLE7=Did You Come By Your Bitterness Honestly?
TTITLE8=Playground Attraction
TTITLE9=You Won't Say My Name
TTITLE10=Nove Scotia
TTITLE11=Savannah
EXTD=
EXTT0=
EXTT1=
EXTT2=
EXTT3=
EXTT4=
EXTT5=
EXTT6=
EXTT7=
EXTT8=
EXTT9=
EXTT10=
EXTT11=
PLAYORDER=
